HIERARCHY
ROOT pelvis
{
  OFFSET 0 100 0
  CHANNELS 6 Xposition Yposition Zposition Zrotation Xrotation Yrotation
  JOINT pelvis_right_femur
  {
    OFFSET -10.78128 -3.44521 -0.5502486
    CHANNELS 3 Zrotation Xrotation Yrotation
    JOINT right_femur_tibia
    {
      OFFSET -0.8047443 -44.0398 -0.1307829
      CHANNELS 3 Zrotation Xrotation Yrotation
      JOINT right_tibia_foot
      {
        OFFSET 3.006224 -47.83518 -5
        CHANNELS 3 Zrotation Xrotation Yrotation
        End Site
        {
          OFFSET 0 -5 15
        }
      }
    }
  }
  JOINT pelvis_left_femur
  {
    OFFSET 10.78128 -3.44521 -0.5502486
    CHANNELS 3 Zrotation Xrotation Yrotation
    JOINT left_femur_tibia
    {
      OFFSET 0.8047443 -44.0398 -0.1307829
      CHANNELS 3 Zrotation Xrotation Yrotation
      JOINT left_tibia_foot
      {
        OFFSET -4.370144 -48.10324 -4.275266
        CHANNELS 3 Zrotation Xrotation Yrotation
        End Site
        {
          OFFSET 0 -5 15
        }
      }
    }
  }
  JOINT pelvis_spine1
  {
    OFFSET 0 6.468898 -3.129235
    CHANNELS 3 Zrotation Xrotation Yrotation
    JOINT spine1
    {
      OFFSET 0 23.15396 4.99043
      CHANNELS 3 Zrotation Xrotation Yrotation
      JOINT spine2
      {
        OFFSET 0 20.79997 -5.064912
        CHANNELS 3 Zrotation Xrotation Yrotation
        JOINT neck
        {
          OFFSET 0 14.38658 9.616178
          CHANNELS 3 Zrotation Xrotation Yrotation
          End Site
          {
            OFFSET 0 20 0
          }
        }
      }
      JOINT right_manubrium
      {
        OFFSET -5.722621 16.35077 3.967754
        CHANNELS 3 Zrotation Xrotation Yrotation
        JOINT right_clavicle
        {
          OFFSET -13.16364 1.694482 -4.693211
          CHANNELS 3 Zrotation Xrotation Yrotation
          JOINT right_humerus
          {
            OFFSET -28.5034 -0.3100689 -2.792744
            CHANNELS 3 Zrotation Xrotation Yrotation
            JOINT right_radius
            {
              OFFSET -25.15693 0.02248979 -1.271978
              CHANNELS 3 Zrotation Xrotation Yrotation
              End Site
              {
                OFFSET -15 0 0
              }
            }
          }
        }
      }
      JOINT left_manubrium
      {
        OFFSET 5.722621 16.35077 3.967754
        CHANNELS 3 Zrotation Xrotation Yrotation
        JOINT left_clavicle
        {
          OFFSET 13.16364 1.694482 -4.693211
          CHANNELS 3 Zrotation Xrotation Yrotation
          JOINT left_humerus
          {
            OFFSET 29.39168 -1.063119 -2.237045
            CHANNELS 3 Zrotation Xrotation Yrotation
            JOINT left_radius
            {
              OFFSET 24.59957 -0.9528479 0.9047498
              CHANNELS 3 Zrotation Xrotation Yrotation
              End Site
              {
                OFFSET 15 -0 -0
              }
            }
          }
        }
      }
    }
  }
}
MOTION
Frames: 23
Frame Time: 0.0416666666667
1052.084 100.6922 2897.385 6.82873 -8.267162 38.78207 5.735159 -1.145216 5.148972 -0 18.54382 -0 -3.353436 -8.123139 -7.925722 -2.35074 -0.4742413 -6.018086 -0 58.99401 -0 -7.012834 -7.503287 18.6376 0.06832752 -1.865306 5.149012 -0.2727916 16.06433 -6.50018 0.3848006 22.80551 4.768653 5.831052 -15.38989 2.117418 -0.4692544 -21.33268 12.831 92.29572 20.7443 -19.68031 -0 0 14.87395 -23.36277 9.287709 6.116875 5.740641 -28.3793 -12.5597 -89.6698 7.300831 18.97397 0 0 -15.01752 15.3967 16.36895 -9.190639
1055.575 101.3817 2902.022 6.799951 -7.900658 37.69579 5.214244 4.105993 5.216576 -0 16.48606 -0 -2.906819 -10.50337 -6.781556 -1.633432 -8.207729 -5.623464 -0 55.34939 -0 -7.028176 -7.727706 19.44329 0.184437 -1.879306 5.698631 -0.1912411 16.26695 -6.428172 0.260445 22.55748 4.572828 5.810271 -14.96728 1.761694 -0.09602865 -22.17236 13.04287 91.44565 20.60402 -18.74511 -0 0 16.54996 -22.95305 9.476924 6.184006 5.192468 -28.11314 -12.65599 -90.80432 7.200098 21.60674 0 0 -12.24871 14.67615 15.98529 -7.936144
1059.04 101.3561 2906.443 6.264656 -7.135826 36.72172 4.688605 8.646548 5.1199 -0 14.65877 -0 -2.353279 -13.12226 -5.428067 -0.4908673 -15.56864 -5.040323 -0 46.86145 -0 -6.956462 -7.892417 20.05641 0.2399305 -1.911716 6.312202 -0.0973606 16.33186 -6.347905 0.1133275 22.24401 4.404565 5.78137 -14.5674 1.429269 0.3649155 -23.08509 13.20229 90.37015 20.70911 -17.63892 -0 0 18.39717 -22.42902 9.675865 6.310215 4.701687 -27.75915 -12.57022 -91.91973 7.118842 24.34532 0 0 -9.611685 13.94197 15.40521 -6.599209
1062.651 100.6955 2910.807 5.241146 -6.108411 35.86941 4.207408 12.27056 4.786444 -0 13.66237 -0 -1.770939 -15.54279 -3.998938 0.7633425 -21.43264 -4.378729 -0 36.00153 -0 -6.717183 -7.68488 20.42611 0.2371264 -1.953582 6.909882 -0.009216656 16.25216 -6.265363 -0.03630384 21.92641 4.291265 5.728785 -14.27772 1.190024 0.8073618 -23.95889 13.28558 89.26995 21.05624 -16.51921 -0 0 20.12097 -21.85418 9.839186 6.464827 4.312402 -27.36049 -12.31477 -92.86286 7.078058 26.84101 0 0 -7.496925 13.33481 14.72974 -5.395097
1066.571 99.7008 2915.295 4.106021 -4.96477 35.13925 3.554426 15.01668 4.332125 -0 14.16856 -0 -1.154594 -16.83664 -2.708591 1.451515 -25.07662 -4.0292 -0 26.44441 -0 -6.269494 -7.30776 20.53577 0.1998305 -1.972335 7.378488 0.0514171 16.0724 -6.186714 -0.1586717 21.68215 4.262444 5.655925 -14.18311 1.107367 1.114001 -24.63816 13.28978 88.4148 21.58101 -15.59891 -0 0 21.37057 -21.33485 9.920055 6.595775 4.051288 -26.97841 -11.96593 -93.49354 7.096497 28.69503 0 0 -6.169587 12.98812 14.10585 -4.566234
1070.909 98.70356 2920.037 3.383607 -3.902346 34.56002 2.524696 16.96082 4.09466 -0 16.85307 -0 -0.4829234 -16.03952 -1.796205 1.110708 -26.52842 -4.258334 -0 20.73195 -0 -5.590664 -7.091843 20.46594 0.1469083 -1.925761 7.6139 0.06954167 15.85391 -6.116265 -0.2334462 21.56693 4.342607 5.611535 -14.29032 1.185474 1.250339 -24.96579 13.22978 87.97354 22.18951 -15.04732 -0 0 21.90605 -20.97681 9.880548 6.652437 3.935893 -26.66996 -11.63406 -93.74281 7.174717 29.59805 0 0 -5.629099 12.95282 13.63655 -4.256641
1075.672 97.98181 2925.054 3.372601 -3.112738 34.20508 1.166348 17.97688 4.258979 -0 22.17644 -0 0.1633804 -12.80426 -1.464168 -0.1919165 -26.12989 -4.981442 -0 19.07749 -0 -4.572548 -7.157543 20.26202 0.07256025 -1.787134 7.560772 0.0420956 15.62822 -6.055967 -0.2622789 21.59262 4.546632 5.673216 -14.5164 1.366832 1.290777 -24.83796 13.12345 87.9211 22.81208 -14.91522 -0 0 21.68836 -20.84283 9.704902 6.614496 3.98657 -26.4681 -11.40145 -93.61965 7.290648 29.42046 0 0 -5.68462 13.19039 13.33331 -4.460568
1080.748 97.76282 2930.245 4.008447 -2.73833 34.19626 -0.1886412 17.73736 4.65566 -0 30.11819 -0 0.8053697 -7.713201 -1.817555 -2.018089 -24.07719 -5.891579 -0 20.08542 -0 -3.329267 -7.572627 19.8603 -0.04458983 -1.556918 7.212562 -0.02759254 15.38879 -6.005984 -0.2577396 21.73604 4.875512 5.891516 -14.76857 1.590184 1.340431 -24.23217 12.9801 88.11888 23.42783 -15.14392 -0 0 20.8258 -20.95933 9.416174 6.515343 4.22926 -26.3717 -11.27604 -93.15734 7.415081 28.17483 0 0 -6.172416 13.62899 13.15919 -5.095701
1085.93 98.17984 2935.422 4.92747 -2.8191 34.64106 -1.080043 15.8812 4.896567 -0 39.62603 -0 1.600157 -2.272091 -2.792256 -3.783296 -20.56994 -6.651777 -0 21.86353 -0 -2.302665 -8.406181 19.21892 -0.2268886 -1.262539 6.596178 -0.1367542 15.11198 -5.965769 -0.228696 21.95514 5.30988 6.261023 -14.99538 1.823212 1.471053 -23.20216 12.80047 88.4074 24.04221 -15.6065 -0 0 19.50494 -21.34577 9.08056 6.446385 4.694714 -26.35303 -11.1925 -92.37851 7.525649 25.94786 0 0 -7.06217 14.19506 13.08298 -6.070812
1090.976 99.18456 2940.384 5.713641 -3.276744 35.53885 -1.264272 12.23394 4.712444 -0 48.64571 -0 2.43167 1.76407 -4.127052 -5.04494 -15.97567 -7.157993 -0 22.89847 -0 -1.845326 -9.580269 18.45311 -0.4853019 -0.9601077 5.79184 -0.2796523 14.77858 -5.935445 -0.1786891 22.19156 5.800732 6.717223 -15.1862 2.056884 1.704538 -21.89781 12.58437 88.63049 24.66344 -16.12856 -0 0 17.99135 -21.9908 8.794595 6.524455 5.394776 -26.37096 -11.03958 -91.33073 7.613406 22.96435 0 0 -8.397373 14.80856 13.08244 -7.271399
1095.704 100.5336 2944.994 6.12216 -3.920948 36.75869 -0.9002663 6.921493 4.184699 -0 55.04347 -0 2.834212 3.508465 -5.434007 -5.669623 -10.75934 -7.514558 -0 22.49263 -0 -1.841122 -10.87988 17.73977 -0.8003705 -0.7211314 4.941781 -0.4372642 14.39628 -5.920476 -0.1078991 22.38262 6.274217 7.152192 -15.37027 2.300075 1.995361 -20.55587 12.34015 88.70172 25.2827 -16.56805 -0 0 16.5605 -22.79486 8.641983 6.803134 6.279278 -26.39732 -10.72899 -90.12107 7.686853 19.63661 0 0 -10.20916 15.40043 13.13475 -8.553719
1100.062 101.8749 2949.225 6.1194 -4.515357 38.10185 -0.3365655 0.3736298 3.585472 -0 57.35701 -0 2.496319 3.331325 -6.447041 -5.761847 -5.373916 -7.784532 -0 20.68703 -0 -1.876543 -12.16462 17.14865 -1.11986 -0.5987617 4.192799 -0.5792053 14.00788 -5.932553 -0.01541219 22.49215 6.658568 7.467633 -15.58922 2.563762 2.244423 -19.39591 12.08732 88.67357 25.85422 -16.92054 -0 0 15.35457 -23.58331 8.644664 7.206935 7.232248 -26.44372 -10.27764 -88.88406 7.760091 16.41782 0 0 -12.47211 15.94089 13.22501 -9.788646
1104.103 102.8461 2953.161 5.830896 -4.883462 39.37694 0.1440062 -6.687641 3.064411 -0 54.88293 -0 1.553206 2.072123 -7.140238 -5.537921 -0.2011309 -7.961836 -0 17.9901 -0 -1.747022 -13.50751 16.6061 -1.389144 -0.6052181 3.62926 -0.682154 13.66817 -5.978944 0.09510604 22.52712 6.910355 7.624286 -15.84669 2.835198 2.36496 -18.52548 11.84852 88.67567 26.30673 -17.28337 -0 0 14.36608 -24.20595 8.760677 7.590853 8.124723 -26.54543 -9.797902 -87.73241 7.834975 13.61984 0 0 -15.06029 16.42537 13.35209 -10.88783
1107.945 103.167 2956.95 5.464635 -4.911839 40.45245 0.3567642 -13.3273 2.501443 -0 47.81216 -0 0.3944859 0.351074 -7.588323 -5.271447 4.472457 -8.058489 -0 15.18854 -0 -1.628878 -15.10854 15.97092 -1.577345 -0.7173738 3.263018 -0.7409805 13.41844 -6.054918 0.2131508 22.5239 7.020235 7.63839 -16.10339 3.07911 2.324663 -17.94731 11.64301 88.80831 26.57363 -17.73555 -0 0 13.53722 -24.60822 8.920945 7.845722 8.860204 -26.72358 -9.413982 -86.74377 7.899525 11.38491 0 0 -17.73419 16.84493 13.52506 -11.79694
1111.719 102.737 2960.773 5.192742 -4.544761 41.29414 0.2134395 -18.67897 1.661801 -0 37.67042 -0 -0.5972355 -1.334569 -7.842936 -5.207736 8.473138 -8.067588 -0 13.14705 -0 -1.784293 -17.0074 15.16095 -1.672298 -0.896242 3.066455 -0.7605615 13.28279 -6.149915 0.326809 22.5229 7.001519 7.542212 -16.32348 3.267542 2.123501 -17.62287 11.48755 89.12581 26.61014 -18.29828 -0 0 12.81825 -24.80565 9.063486 7.927289 9.37518 -26.97371 -9.207321 -85.96711 7.938996 9.76084 0 0 -20.22069 17.18712 13.75821 -12.4903
1115.546 101.6728 2964.798 5.06022 -3.883187 41.96074 -0.1748576 -22.31671 0.5703063 -0 27.06908 -0 -1.22752 -2.518735 -7.967386 -5.399581 11.79072 -7.953588 -0 12.50604 -0 -2.295021 -18.87809 14.22836 -1.666649 -1.103496 3.004536 -0.7438803 13.27397 -6.256831 0.4282836 22.55132 6.876296 7.356878 -16.50572 3.397919 1.763913 -17.51663 11.39766 89.66162 26.39378 -18.96126 -0 0 12.17236 -24.82845 9.149133 7.831225 9.626554 -27.27692 -9.210762 -85.4294 7.946352 8.763228 0 0 -22.30423 17.44553 14.06424 -12.96251
1119.516 100.2377 2969.15 5.008597 -3.181717 42.54451 -0.4978747 -24.30813 -0.4014345 -0 18.3895 -0 -1.571763 -3.038172 -8.081217 -5.674284 14.53904 -7.7487 -0 13.53826 -0 -3.097443 -20.1978 13.32253 -1.56193 -1.309082 3.045319 -0.6941986 13.39245 -6.370619 0.5133139 22.61831 6.670565 7.100189 -16.66125 3.478806 1.265701 -17.59823 11.3834 90.40128 25.92677 -19.68025 -0 0 11.59532 -24.71611 9.16553 7.586847 9.603843 -27.60721 -9.413354 -85.14093 7.925337 8.37919 0 0 -23.83688 17.61311 14.44507 -13.21533
1123.675 98.752 2973.905 4.966642 -2.723613 43.1027 -0.4050971 -24.91496 -0.8325965 -0 12.98384 -0 -1.85858 -3.066479 -8.287975 -5.781626 16.77787 -7.55425 -0 16.36542 -0 -4.055863 -20.49564 12.64681 -1.379857 -1.491821 3.159381 -0.6244704 13.62204 -6.479922 0.578066 22.71744 6.415138 6.806398 -16.77714 3.508323 0.6946789 -17.82859 11.4432 91.24168 25.25081 -20.3595 -0 0 11.13955 -24.53466 9.126028 7.261172 9.348373 -27.93078 -9.767387 -85.09843 7.885052 8.548597 0 0 -24.71226 17.67775 14.88296 -13.25716
1128.021 97.53294 2979.075 4.91642 -2.744038 43.61164 0.3415564 -24.3746 -0.4648733 -0 11.28583 -0 -2.234703 -2.901486 -8.622094 -5.535026 18.36752 -7.443947 -0 21.09566 -0 -4.978059 -19.47144 12.43089 -1.155069 -1.63808 3.323106 -0.5536253 13.93339 -6.568249 0.6191263 22.83119 6.141773 6.521533 -16.82232 3.476476 0.1452711 -18.16225 11.56462 92.03169 24.45013 -20.88927 -0 0 10.88529 -24.35201 9.060929 6.930564 8.936438 -28.21207 -10.20954 -85.28535 7.832131 9.176602 0 0 -24.88094 17.63369 15.339 -13.10983
1132.502 96.83285 2984.588 4.939584 -3.362962 43.9617 1.707226 -22.81583 0.6525687 -0 12.73877 -0 -2.682955 -2.845092 -9.029794 -4.928115 18.99794 -7.39818 -0 27.66835 -0 -5.701129 -17.18613 12.82502 -0.9179211 -1.74192 3.52279 -0.4943938 14.29355 -6.623821 0.6352377 22.93724 5.875095 6.281793 -16.77663 3.379207 -0.3042648 -18.5614 11.73095 92.65197 23.62377 -21.2029 -0 0 10.88778 -24.20113 9.002319 6.645604 8.441518 -28.42555 -10.68358 -85.67274 7.768386 10.16591 0 0 -24.37547 17.48766 15.76441 -12.80333
1137.029 96.78719 2990.286 5.174146 -4.501983 44.01029 3.341227 -20.22212 2.123224 -0 15.81961 -0 -3.122918 -3.097524 -9.372938 -4.167444 18.33698 -7.307157 -0 35.67721 -0 -6.19235 -14.17986 13.78014 -0.6871167 -1.806378 3.753744 -0.4491121 14.67416 -6.644797 0.6277367 23.01611 5.62704 6.102111 -16.63931 3.221119 -0.6151457 -19.00359 11.92659 93.04785 22.84709 -21.29065 -0 0 11.15875 -24.0795 8.972596 6.424678 7.914185 -28.56255 -11.15082 -86.22403 7.693293 11.43517 0 0 -23.29714 17.25141 16.11902 -12.36349
1141.493 97.39468 2995.973 5.656668 -5.872552 43.66532 4.778985 -16.54918 3.461235 -0 18.73695 -0 -3.475296 -3.71375 -9.498816 -3.510247 16.11803 -7.073914 -0 44.25345 -0 -6.525308 -11.24179 15.06833 -0.4709975 -1.841079 4.018354 -0.4130841 15.0558 -6.636527 0.5990023 23.0545 5.397777 5.979829 -16.41958 3.009498 -0.781361 -19.48327 12.14029 93.21169 22.15599 -21.17394 -0 0 11.68634 -23.96712 8.982727 6.266557 7.379728 -28.62688 -11.58971 -86.90768 7.606554 12.93434 0 0 -21.7617 16.93156 16.37934 -11.80113
1145.791 98.51083 3001.47 6.259497 -7.093123 42.93591 5.693004 -11.90309 4.396515 -0 20.26231 -0 -3.657122 -4.717632 -9.309439 -3.063146 12.16328 -6.718761 -0 52.07879 -0 -6.766146 -9.012885 16.42221 -0.2710091 -1.856561 4.327158 -0.3778917 15.42651 -6.606245 0.5501182 23.04152 5.181273 5.903158 -16.12908 2.750443 -0.8102767 -20.01343 12.36632 93.14896 21.56162 -20.87127 -0 0 12.46727 -23.83476 9.037315 6.163867 6.841552 -28.62252 -11.98691 -87.71054 7.509471 14.66442 0 0 -19.84342 16.52344 16.52791 -11.10406
